<?xml version="1.0" standalone="no"?><!DOCTYPE svg PUBLIC "-//W3C//DTD SVG 1.1//EN" "http://www.w3.org/Graphics/SVG/1.1/DTD/svg11.dtd"><svg t="1588593602414" class="icon" viewBox="0 0 1024 1024" version="1.1" xmlns="http://www.w3.org/2000/svg" p-id="3153" xmlns:xlink="http://www.w3.org/1999/xlink" width="200" height="200"><defs><style type="text/css"></style></defs><path d="M788.290115 955.564351H622.220822V734.62845H400.857179v220.935901H234.849284c-30.556946 0-55.356772-24.739451-55.356772-55.202253v-326.383511l332.077188-331.558372 332.077187 331.558372v326.382488c0 30.495548-24.799826 55.203276-55.356772 55.203276m110.653169-388.474662L511.5697 180.266643 124.136763 567.089689 64.860728 513.568728c0-14.144138 5.38873-28.290323 16.226567-39.09746l391.353222-390.773007c21.677719-21.553898 56.703443-21.553898 78.259388 0l391.290801 390.773007c10.900258 10.807137 16.288988 24.953322 16.288988 39.09746l-59.33641 53.520961M634.345977 179.991374h152.229077v152.017252L634.345977 179.991374m0 0" p-id="3154"></path></svg>